<svg xmlns="http://www.w3.org/2000/svg" width="32" height="32" viewBox="0 0 32 32">
    <defs>
        <style>
            .cls-2{fill:#1f2457}
        </style>
    </defs>
    <g id="EU_-_delivery_icon" data-name="EU - delivery_icon" transform="translate(-580 -311)">
        <g id="Group_4607" data-name="Group 4607" transform="translate(580 311)" style="opacity:.4">
            <path id="Path_7120" data-name="Path 7120" class="cls-2" d="M311.081 257.212a.158.158 0 0 0 0-.224.155.155 0 0 0-.089-.044l-1.52-.22-.69-1.414a.157.157 0 0 0-.141-.089.156.156 0 0 0-.142.091l-.672 1.422-1.517.237a.158.158 0 0 0-.133.18.163.163 0 0 0 .046.089l1.106 1.1-.25 1.563a.158.158 0 0 0 .232.163l1.353-.743 1.362.725a.16.16 0 0 0 .231-.17l-.272-1.558z" transform="translate(-304.418 -234.87)"/>
            <path id="Path_7121" data-name="Path 7121" class="cls-2" d="m339.814 256.947-1.52-.22-.691-1.414a.157.157 0 0 0-.142-.088.156.156 0 0 0-.141.091l-.67 1.422-1.519.237a.157.157 0 0 0-.133.18.163.163 0 0 0 .046.089l1.106 1.1-.25 1.563a.157.157 0 0 0 .131.18h.027a.163.163 0 0 0 .079-.02l1.352-.743 1.363.725a.16.16 0 0 0 .167-.012.157.157 0 0 0 .063-.158l-.271-1.558 1.1-1.113a.158.158 0 0 0 0-.224.153.153 0 0 0-.089-.044z" transform="translate(-309.711 -234.871)"/>
            <path id="Path_7122" data-name="Path 7122" class="cls-2" d="m333.724 263.034-1.521-.22-.69-1.413a.157.157 0 0 0-.142-.089.156.156 0 0 0-.141.091l-.67 1.422-1.519.237a.158.158 0 0 0-.086.269l1.106 1.1-.251 1.563a.157.157 0 0 0 .066.153.166.166 0 0 0 .091.029.175.175 0 0 0 .079-.02l1.352-.744 1.363.725a.158.158 0 0 0 .23-.169l-.271-1.558 1.1-1.113a.153.153 0 0 0-.091-.262z" transform="translate(-308.622 -235.94)"/>
            <path id="Path_7123" data-name="Path 7123" class="cls-2" d="m317.083 263.034-1.521-.22-.69-1.413a.157.157 0 0 0-.141-.089.156.156 0 0 0-.142.091l-.672 1.422-1.518.237a.157.157 0 0 0-.086.269l1.106 1.1-.25 1.563a.157.157 0 0 0 .131.18h.027a.172.172 0 0 0 .079-.02l1.354-.744 1.361.725a.158.158 0 0 0 .23-.169l-.269-1.558 1.094-1.113a.152.152 0 0 0-.093-.262z" transform="translate(-305.508 -235.94)"/>
            <path id="Path_7124" data-name="Path 7124" class="cls-2" d="m330.062 235.611-.25 1.559a.157.157 0 0 0 .066.153.159.159 0 0 0 .091.029.175.175 0 0 0 .079-.02l1.353-.744 1.362.725a.158.158 0 0 0 .23-.169l-.271-1.558 1.1-1.113a.158.158 0 0 0 0-.224.155.155 0 0 0-.089-.043l-1.522-.217-.69-1.413a.155.155 0 0 0-.142-.089.158.158 0 0 0-.141.091l-.677 1.422-1.519.237a.157.157 0 0 0-.131.18.161.161 0 0 0 .045.089z" transform="translate(-308.623 -230.724)"/>
            <path id="Path_7125" data-name="Path 7125" class="cls-2" d="m313.424 235.611-.249 1.559a.158.158 0 0 0 .155.183.17.17 0 0 0 .079-.02l1.354-.744 1.362.725a.157.157 0 0 0 .213-.066.16.16 0 0 0 .017-.1l-.27-1.558 1.1-1.113a.158.158 0 0 0 0-.224.155.155 0 0 0-.088-.043l-1.523-.216-.689-1.413a.159.159 0 0 0-.142-.089.158.158 0 0 0-.142.091l-.679 1.417-1.519.237a.158.158 0 0 0-.131.181.162.162 0 0 0 .045.088z" transform="translate(-305.509 -230.724)"/>
            <path id="Path_7126" data-name="Path 7126" class="cls-2" d="m307.331 241.7-.249 1.559a.156.156 0 0 0 .065.158.159.159 0 0 0 .091.029.163.163 0 0 0 .079-.021l1.354-.743 1.361.725a.159.159 0 0 0 .214-.064.166.166 0 0 0 .017-.1l-.27-1.559 1.094-1.112a.158.158 0 0 0-.09-.268l-1.522-.216-.69-1.414a.157.157 0 0 0-.141-.088.156.156 0 0 0-.142.091l-.672 1.422-1.517.237a.156.156 0 0 0-.087.266z" transform="translate(-304.42 -231.796)"/>
            <path id="Path_7127" data-name="Path 7127" class="cls-2" d="M335 240.446a.158.158 0 0 0 .039.158l1.106 1.1-.242 1.562a.156.156 0 0 0 .065.158.17.17 0 0 0 .092.029.164.164 0 0 0 .079-.021l1.353-.743 1.362.725a.158.158 0 0 0 .214-.066.16.16 0 0 0 .017-.1l-.272-1.559 1.1-1.112a.157.157 0 0 0-.09-.268l-1.521-.216-.691-1.414a.155.155 0 0 0-.142-.089.166.166 0 0 0-.143.091l-.67 1.422-1.519.237a.156.156 0 0 0-.137.106z" transform="translate(-309.711 -231.796)"/>
            <path id="Path_7128" data-name="Path 7128" class="cls-2" d="M342.172 248.72a.158.158 0 0 0-.127-.105l-1.522-.217-.69-1.413a.159.159 0 0 0-.142-.089.156.156 0 0 0-.141.091l-.672 1.422-1.518.237a.158.158 0 0 0-.131.181.16.16 0 0 0 .045.087l1.106 1.1-.25 1.563a.158.158 0 0 0 .065.153.16.16 0 0 0 .091.029.169.169 0 0 0 .078-.02l1.354-.744 1.361.725a.157.157 0 0 0 .213-.066.16.16 0 0 0 .017-.1L341.04 250l1.1-1.117a.161.161 0 0 0 .032-.163z" transform="translate(-310.179 -233.331)"/>
            <path id="Path_7129" data-name="Path 7129" class="cls-2" d="M307.807 251.723a.158.158 0 0 0 .23-.169l-.271-1.554 1.1-1.113a.158.158 0 0 0-.09-.268l-1.521-.217-.691-1.413a.151.151 0 0 0-.144-.088.158.158 0 0 0-.142.091l-.67 1.422-1.519.237a.157.157 0 0 0-.126.107.16.16 0 0 0 .039.158l1.111 1.1-.251 1.563a.159.159 0 0 0 .065.158.174.174 0 0 0 .092.028.16.16 0 0 0 .079-.02l1.354-.748z" transform="translate(-303.952 -233.331)"/>
            <path id="Path_7130" data-name="Path 7130" class="cls-2" d="m321.742 233.383-.25 1.561a.158.158 0 0 0 .065.153.152.152 0 0 0 .167.01l1.354-.744 1.364.725a.161.161 0 0 0 .167-.012.157.157 0 0 0 .063-.158l-.271-1.56 1.1-1.113a.158.158 0 0 0 0-.224.153.153 0 0 0-.09-.044l-1.522-.216-.69-1.414a.158.158 0 0 0-.142-.089.158.158 0 0 0-.142.091l-.671 1.424-1.519.237a.158.158 0 0 0-.132.18.167.167 0 0 0 .045.089z" transform="translate(-307.067 -230.258)"/>
            <path id="Path_7131" data-name="Path 7131" class="cls-2" d="m325.4 265.263-1.52-.219-.69-1.413a.159.159 0 0 0-.142-.089.155.155 0 0 0-.142.092l-.671 1.422-1.519.237a.158.158 0 0 0-.133.18.163.163 0 0 0 .046.089l1.11 1.1-.25 1.562a.157.157 0 0 0 .065.158.16.16 0 0 0 .091.029.163.163 0 0 0 .079-.021l1.353-.743 1.363.725a.159.159 0 0 0 .23-.17l-.271-1.559 1.1-1.112a.158.158 0 0 0 0-.224.151.151 0 0 0-.089-.044z" transform="translate(-307.065 -236.408)"/>
        </g>
        <g id="Group_4606" data-name="Group 4606" transform="translate(587.33 322)">
            <path id="Path_7133" data-name="Path 7133" class="cls-2" d="M320.93 249.659V247.5h-7.311v10h7.31l.322-2.153h-4.86v-1.911h4.364v-2.169h-4.364v-1.605z" transform="translate(-313.619 -247.493)"/>
            <path id="Path_7134" data-name="Path 7134" class="cls-2" d="M332.707 253.831v-6.339h-2.895v6.437c0 .955-.238 1.758-1.427 1.758-1.222 0-1.469-.837-1.469-1.758v-6.437h-2.873v6.335c0 2.416 1.16 3.963 4.29 3.963 3.151 0 4.374-1.532 4.374-3.959z" transform="translate(-315.367 -247.492)"/>
        </g>
    </g>
</svg>
