<svg xmlns="http://www.w3.org/2000/svg" width="32" height="32" viewBox="0 0 32 32">
    <g data-name="Group 4610">
        <path data-name="Path 525" d="M558.431 58.726h-1.2V57.3a2.877 2.877 0 0 0-5.755 0v1.429h-1.2a1.481 1.481 0 0 0-1.479 1.479v5.952a1.481 1.481 0 0 0 1.479 1.479h8.159a1.481 1.481 0 0 0 1.479-1.479V60.2a1.481 1.481 0 0 0-1.479-1.479m-6.048-1.421a1.964 1.964 0 0 1 3.928 0v1.429h-3.928zM559 66.157a.566.566 0 0 1-.565.565h-8.159a.566.566 0 0 1-.565-.565V60.2a.566.566 0 0 1 .565-.565h8.159a.566.566 0 0 1 .565.565z" transform="translate(-531.683 -42.165)" style="fill:#222224"/>
        <path data-name="Path 526" d="M574.383 91.79a.457.457 0 0 0-.457.457v1.437a.457.457 0 1 0 .913 0v-1.437a.457.457 0 0 0-.457-.457" transform="translate(-551.714 -71.949)" style="fill:#222224"/>
        <path data-name="Path 527" d="M506.229 23.6h-19.816a2.193 2.193 0 0 0-2.2 2.175v12.874a2.193 2.193 0 0 0 2.2 2.175h9.2a.457.457 0 1 0 0-.913h-9.2a1.279 1.279 0 0 1-1.291-1.262V28.616h22.4v4.208a.457.457 0 1 0 .913 0v-7.046a2.193 2.193 0 0 0-2.2-2.175m1.291 4.1h-22.4v-1.925a1.278 1.278 0 0 1 1.291-1.262h19.816a1.278 1.278 0 0 1 1.291 1.262z" transform="translate(-480.208 -17.603)" style="fill:#222224"/>
        <path data-name="Path 528" d="M498.945 91.56a.457.457 0 1 0 0 .913h1.437a.457.457 0 0 0 0-.913z" transform="translate(-491.589 -71.766)" style="fill:#222224"/>
    </g>
    <path data-name="Rectangle 460" style="fill:none" d="M0 0h32v32H0z"/>
</svg>
